<svg height="558" width="720" xmlns="http://www.w3.org/2000/svg">
<rect height="558" fill="#555" width="720"></rect>
<text fill="#7f7" font-family="Courier New" font-size="12" xml:space="preserve">
<tspan x="10" y="26">4 megabytes installed</tspan>
<tspan x="10" y="42"></tspan>
<tspan x="10" y="58">node_modules</tspan>
<tspan x="10" y="74">└─┬ html-minifier@3.4.3 </tspan>
<tspan x="10" y="90">  ├─┬ camel-case@3.0.0 </tspan>
<tspan x="10" y="106">  │ ├─┬ no-case@2.3.1 </tspan>
<tspan x="10" y="122">  │ │ └── lower-case@1.1.4 </tspan>
<tspan x="10" y="138">  │ └── upper-case@1.1.3 </tspan>
<tspan x="10" y="154">  ├─┬ clean-css@4.0.12 </tspan>
<tspan x="10" y="170">  │ └── source-map@0.5.6 </tspan>
<tspan x="10" y="186">  ├─┬ commander@2.9.0 </tspan>
<tspan x="10" y="202">  │ └── graceful-readlink@1.0.1 </tspan>
<tspan x="10" y="218">  ├── he@1.1.1 </tspan>
<tspan x="10" y="234">  ├─┬ ncname@1.0.0 </tspan>
<tspan x="10" y="250">  │ └── xml-char-classes@1.0.0 </tspan>
<tspan x="10" y="266">  ├── param-case@2.1.1 </tspan>
<tspan x="10" y="282">  ├── relateurl@0.2.7 </tspan>
<tspan x="10" y="298">  └─┬ uglify-js@2.8.22 </tspan>
<tspan x="10" y="314">    ├── uglify-to-browserify@1.0.2 </tspan>
<tspan x="10" y="330">    └─┬ yargs@3.10.0 </tspan>
<tspan x="10" y="346">      ├── camelcase@1.2.1 </tspan>
<tspan x="10" y="362">      ├─┬ cliui@2.1.0 </tspan>
<tspan x="10" y="378">      │ ├─┬ center-align@0.1.3 </tspan>
<tspan x="10" y="394">      │ │ ├─┬ align-text@0.1.4 </tspan>
<tspan x="10" y="410">      │ │ │ ├─┬ kind-of@3.1.0 </tspan>
<tspan x="10" y="426">      │ │ │ │ └── is-buffer@1.1.5 </tspan>
<tspan x="10" y="442">      │ │ │ ├── longest@1.0.1 </tspan>
<tspan x="10" y="458">      │ │ │ └── repeat-string@1.6.1 </tspan>
<tspan x="10" y="474">      │ │ └── lazy-cache@1.0.4 </tspan>
<tspan x="10" y="490">      │ ├── right-align@0.1.3 </tspan>
<tspan x="10" y="506">      │ └── wordwrap@0.0.2 </tspan>
<tspan x="10" y="522">      ├── decamelize@1.2.0 </tspan>
<tspan x="10" y="538">      └── window-size@0.1.0</tspan>
</text>
</svg>
